<?xml version="1.0" encoding="utf-8"?>
<!-- Generator: Adobe Illustrator 16.0.0, SVG Export Plug-In . SVG Version: 6.00 Build 0)  -->
<!DOCTYPE svg PUBLIC "-//W3C//DTD SVG 1.1//EN" "http://www.w3.org/Graphics/SVG/1.1/DTD/svg11.dtd">
<svg version="1.1" id="Layer_1" xmlns="http://www.w3.org/2000/svg" xmlns:xlink="http://www.w3.org/1999/xlink" x="0px" y="0px"
	 width="128px" height="128px" viewBox="0 0 128 128" enable-background="new 0 0 128 128" xml:space="preserve">
<g>
	<g>
		<path fill="#D97706" d="M74.244,64.247c-3.751-8.248,0.753-15.716,5.109-22.938c3.283-5.445,6.386-10.588,6.17-15.947
			c-0.371-9.204-8.138-17.02-15.258-19.703C58.957,1.399,49.125,6.745,49.028,6.8l-1.944-3.496
			C47.55,3.045,58.65-2.991,71.676,1.916C79.998,5.051,89.079,14.277,89.52,25.2c0.265,6.559-3.297,12.464-6.741,18.174
			c-3.997,6.626-7.772,12.886-4.894,19.216L74.244,64.247z"/>
	</g>
	<g>
		<path fill="#D97706" d="M92.006,72.932c-1.295,0-2.797-0.186-4.543-0.618c-7.369-1.831-12.494-5.571-15.231-11.121
			c-5.318-10.783,0.475-24.34,0.725-24.912l3.666,1.597c-0.092,0.215-5.282,12.49-0.796,21.56c2.193,4.436,6.433,7.462,12.602,8.994
			c2.583,0.644,5.919,0.998,7.13-0.963c1.401-2.269-0.027-6.797-1.07-8.018c-6.128-7.168-5.761-14.051-2.679-17.692
			c2.786-3.292,7.448-3.831,11.595-1.335c2.341,1.408,4.051,4.254,5.704,7.006c1.954,3.252,3.976,6.615,6.419,6.615v4
			c-4.707,0-7.438-4.544-9.848-8.555c-1.4-2.332-2.85-4.744-4.337-5.639c-2.479-1.489-4.961-1.302-6.48,0.492
			c-1.987,2.349-1.934,7.128,2.667,12.509c1.83,2.142,3.994,8.572,1.432,12.719C97.932,71.234,95.922,72.932,92.006,72.932z
			 M76.622,37.878l-1.833-0.798l1.834,0.796C76.623,37.876,76.623,37.877,76.622,37.878L76.622,37.878z"/>
	</g>
	<g>
		<polygon fill="#D97706" points="43.893,44.389 40.032,34.207 43.772,32.789 46.063,38.831 57.98,32.867 59.771,36.444 		"/>
	</g>
	<g>
		<path fill="#D97706" d="M49.673,30.769c-0.149-1.337-0.456-2.772-0.721-3.861l-10.921,2.409l-7.193-10.714l2.208-0.954
			c0.098-0.042,9.86-4.255,17.01-7.178c3.78-1.548,7.138-1.654,9.978-0.316c4.032,1.897,5.363,6.03,5.418,6.205l-3.814,1.206
			c-0.009-0.027-0.902-2.681-3.341-3.808c-1.781-0.823-4.044-0.683-6.727,0.415c-5.054,2.066-11.426,4.783-14.728,6.199l2.989,4.453
			l11.937-2.633l0.536,1.774c0.041,0.136,1.011,3.368,1.345,6.359L49.673,30.769z"/>
	</g>
	<g>
		<path fill="#D97706" d="M42.981,61.478c-0.053-0.924-0.438-9.152,2.234-13.222c4.041-6.153,7.816-10.398,10.572-13.498
			c2.92-3.283,4.849-5.452,5.2-7.545l3.945,0.661c-0.542,3.229-2.896,5.877-6.155,9.542c-2.824,3.175-6.338,7.126-10.218,13.034
			c-1.653,2.517-1.699,8.798-1.585,10.799L42.981,61.478z"/>
	</g>
	<g>
		<path fill="#D97706" d="M101.584,128H74.857l6.418-16.81l7.402,2.859c0.069-0.797,0.007-1.766-0.421-2.719
			c-0.797-1.774-2.677-3.145-5.588-4.074c-8.318-2.654-10.694-8.606-12.789-13.857c-1.125-2.816-2.187-5.477-4.085-7.228
			c-1.553-1.433-11.671-10.504-11.773-10.596l2.669-2.979c0.417,0.374,10.242,9.183,11.816,10.634
			c2.563,2.366,3.847,5.578,5.087,8.686c1.939,4.858,3.771,9.449,10.292,11.53c4.071,1.299,6.779,3.423,8.049,6.311
			c1.715,3.904,0.02,7.654-0.054,7.812l-0.787,1.701l-7.515-2.903l-2.913,7.634H98.07l2.974-22.896
			c-5.226-2.455-8.615-6.07-10.087-10.765c-3.271-10.432,4.323-22.246,4.648-22.744l3.35,2.185l-1.675-1.092l1.676,1.09
			c-0.069,0.107-6.891,10.757-4.18,19.378c1.229,3.907,4.323,6.889,9.195,8.863l1.431,0.58L101.584,128z"/>
	</g>
	<g>
		<polygon fill="#D97706" points="55.292,77.268 32.089,71.821 29.975,75.602 12.999,71.793 18.737,58.686 47.517,58.574 
			47.533,62.573 21.356,62.675 18.608,68.952 27.941,71.045 30.07,67.24 53.548,72.75 58.29,65.868 61.583,68.138 		"/>
	</g>
	<g>
		<path fill="#D97706" d="M62.056,128H34.569l8.17-15.645l7.391,1.547l0.498-4.448c-2.204-2.313-8.457-9.722-7.029-18.042
			c1.072-6.251,6.158-11.394,15.117-15.286l1.594,3.668c-7.635,3.316-11.931,7.448-12.767,12.28
			c-1.334,7.706,6.465,15.112,6.544,15.187l0.732,0.686l-1.203,10.771l-8.733-1.828l-3.713,7.111h18.343l6.729-14.365l-4.237-0.351
			l0.677-7.402l7.771-7.264l2.73,2.922l-6.656,6.223l-0.171,1.867l5.948,0.493L62.056,128z"/>
	</g>
	<g>
		<path fill="#D97706" d="M28.667,59.156c-0.225-1.268-3.591-8.639-6.899-15.44h-5.904l-3.39-16.832l15.03,1.106l13.274,18.898
			l-3.273,2.299L25.321,31.841l-7.886-0.581l1.703,8.456h5.126l0.549,1.12c5.204,10.622,7.842,16.731,7.842,18.157h-4
			C28.656,59.037,28.656,59.092,28.667,59.156z"/>
	</g>
</g>
</svg>
